<svg xmlns="http://www.w3.org/2000/svg" width="68" height="40"><style/><path id="Shape-4" d="M0 .25h8.18v3.12H3.27v11.46H0V.25zm10.43 14.58V.25h3.28v9.06L20.05.25h2.86v14.58h-3.27V5.77l-6.34 9.06h-2.87zM33.65 3.37h-5.01v11.46h-3.27V.25h11.56v14.58h-3.28V3.37zm14.02 0h-5.02v11.46h-3.27V.25h11.56v14.58h-3.27V3.37zM60.39 0C64.75 0 68 2.89 68 7.54c0 4.41-3.25 7.54-7.61 7.54s-7.61-2.9-7.61-7.54c0-4.23 3.05-7.54 7.61-7.54zm0 11.95c2.72 0 4.13-1.96 4.13-4.41 0-2.67-1.82-4.42-4.13-4.42-2.37 0-4.13 1.75-4.13 4.42 0 2.5 1.84 4.41 4.13 4.41zm-52.1 7.77H3.27v11.45H0V16.6h11.56v14.57H8.29V19.72zm12.31-3.37c4.36 0 7.61 2.89 7.61 7.53 0 4.42-3.25 7.54-7.61 7.54s-7.61-2.89-7.61-7.54c0-4.22 3.05-7.53 7.61-7.53zm0 11.95c2.72 0 4.13-1.96 4.13-4.42 0-2.66-1.82-4.41-4.13-4.41-2.37 0-4.13 1.75-4.13 4.41 0 2.5 1.84 4.42 4.13 4.42zm22.89-11.7h2.93l5.95 14.57h-3.5l-1.18-3.06h-5.67l-1.19 3.06h-3.29l5.95-14.57zm-.24 8.39h3.21l-1.6-4.13-1.61 4.13zm9.73-8.39h3.3l4.42 6.14 4.17-6.14h3.09v14.57h-3.27v-9.28l-3.99 5.68h-.47l-3.97-5.62v9.22h-3.28V16.6zm-24.77 0v3.12c.77 0 1.49.21 2.12.57.07.04.15 0 .16-.08.03-.3.18-.89.94-1.02.65-.11 1.17.31 1.28.92.12.64-.3 1.21-.88 1.33-.08.02-.12.11-.08.18.77 1.55 1.18 6.58 1.18 6.58.17 1.57.21 3.15.14 4.73l-.29 5.96c-.02.6.45 1.11 1.05 1.11h.63c.6 0 1.07-.51 1.04-1.11l-.28-6c-.08-1.59-.03-3.18.13-4.75 0 0 .45-5.35 1.18-6.51.05-.08.01-.17-.07-.18-.37-.05-1.12-.28-1.03-1.3.05-.49.43-.88.91-.95 1.1-.15 1.29.69 1.31 1.09.01.08.1.13.17.08.7-.42 1.42-.65 2.26-.65V16.6H28.21zm6.43 6.77c1.7 1.64 3.26 2.28 4.18 2.52.16.05.13.28-.04.28-.9 0-2.48-.3-4.71-1.79l.57-1.01zm-1 0c-1.7 1.64-3.27 2.28-4.19 2.52-.15.05-.12.28.04.28.91 0 2.49-.3 4.72-1.79l-.57-1.01z" fill="#87e7a5"/></svg>