<svg xmlns="http://www.w3.org/2000/svg" viewBox="0 0 129 129" width="64" height="64"><defs><linearGradient id="grd1" gradientUnits="userSpaceOnUse" x1="-32.705" y1="57.097" x2="57.61" y2="-33.218"><stop offset="0" stop-color="#ed9b40"/><stop offset=".3" stop-color="#d74948"/><stop offset=".6" stop-color="#ca2c7c"/><stop offset="1" stop-color="#5241a2"/></linearGradient></defs><style>.shp1{fill:#fff}</style><g id="Слой 1"><g id="&lt;Group&gt;"><path id="&lt;Path&gt;" d="M128.71 64.33c0 35.27-28.59 63.87-63.86 63.87C29.58 128.2.98 99.6.98 64.33.98 29.06 29.58.47 64.85.47c35.27 0 63.86 28.59 63.86 63.86z" fill="url(#grd1)"/><g id="&lt;Group&gt;"><path id="&lt;Compound Path&gt;" fill-rule="evenodd" class="shp1" d="M91.18 52.26v24.15c0 7.87-6.39 14.26-14.25 14.26H52.77c-7.86 0-14.26-6.39-14.26-14.26V52.26c0-7.87 6.4-14.26 14.26-14.26h24.16c7.86 0 14.25 6.39 14.25 14.26zM79.25 64.33c0-7.94-6.46-14.4-14.4-14.4-7.95 0-14.41 6.46-14.41 14.4 0 7.95 6.46 14.41 14.41 14.41 7.94 0 14.4-6.46 14.4-14.41zm4.6-15.26a4.255 4.255 0 00-8.51 0c0 2.35 1.91 4.26 4.25 4.26 2.35 0 4.26-1.91 4.26-4.26z"/><path id="&lt;Path&gt;" class="shp1" d="M64.85 53.94c-5.73 0-10.4 4.66-10.4 10.39 0 5.74 4.67 10.4 10.4 10.4s10.39-4.66 10.39-10.4c0-5.73-4.66-10.39-10.39-10.39zm14.74-6.04c-.64 0-1.16.53-1.16 1.17a1.165 1.165 0 102.33 0c0-.64-.52-1.17-1.17-1.17z"/></g></g></g></svg>