<svg xmlns="http://www.w3.org/2000/svg" viewBox="0 0 854 854" width="60" height="60"><style/><g id="Page 1"><path id="Path 1" fill-rule="evenodd" d="M853.34 427.34C853.34 662.95 662.29 854 426.67 854 191.04 854 0 662.95 0 427.34 0 191.71 191.04.67 426.67.67c235.62 0 426.67 191.04 426.67 426.67zm-800 0c0 205.83 167.49 373.33 373.33 373.33C632.5 800.67 800 633.17 800 427.34 800 221.5 632.5 54 426.67 54 220.83 54 53.34 221.5 53.34 427.34zm598.64 195.88l-34.17 34.17c-6.09 6.09-23.95 9.9-24.53 9.9-108.07.93-212.14-41.52-288.59-117.97-76.67-76.72-119.17-181.15-118.02-289.59 0-.06 3.91-17.4 9.99-23.43l34.18-34.18c12.5-12.55 36.5-18.23 53.32-12.6l7.2 2.4c16.76 5.62 34.37 24.16 39 41.25l17.19 63.07c4.64 17.14-1.61 41.51-14.11 54.01l-22.81 22.81c22.39 82.92 87.44 147.97 170.36 170.42l22.81-22.81c12.56-12.56 36.93-18.81 54.01-14.17l63.07 17.24c17.09 4.68 35.63 22.19 41.25 38.95l2.41 7.3c5.57 16.77-.06 40.78-12.56 53.23z" fill="#62cc82"/></g></svg>