<svg xmlns="http://www.w3.org/2000/svg" viewBox="0 0 129 129" width="64" height="64"><style/><g id="Слой 1"><g id="&lt;Group&gt;"><path id="&lt;Path&gt;" d="M64.85.64c35.27 0 63.86 28.59 63.86 63.86 0 35.27-28.59 63.86-63.86 63.86C29.58 128.36.98 99.77.98 64.5.98 29.23 29.58.64 64.85.64z" fill="#ff2e17"/><path id="&lt;Path&gt;" d="M64.75 34.56c-16.79 0-30.41 13.61-30.41 30.4 0 12.45 7.49 23.15 18.2 27.85-.08-2.13-.01-4.68.53-6.98.39-1.65 1.7-7.17 3.91-16.57-.65-1.3-.97-2.9-.97-4.81 0-4.5 2.61-7.87 5.87-7.87 2.76 0 4.1 2.08 4.1 4.56 0 2.78-1.78 6.94-2.69 10.79-.76 3.23 1.62 5.86 4.8 5.86 5.76 0 9.64-7.4 9.64-16.17 0-6.66-4.49-11.64-12.65-11.64-9.22 0-14.97 6.87-14.97 14.55 0 2.65.78 4.52 2.01 5.97.56.66.64.93.43 1.69-.14.56-.47 1.91-.61 2.44-.21.77-.83 1.04-1.53.76-4.25-1.73-6.22-6.38-6.22-11.61 0-8.64 7.28-19 21.73-19 11.6 0 19.25 8.4 19.25 17.42 0 11.93-6.64 20.83-16.41 20.83-3.29 0-6.37-1.77-7.43-3.78-1.18 4.67-1.89 7.45-2.14 8.36-.64 2.33-1.91 4.68-3.06 6.51 2.73.8 5.62 1.24 8.62 1.24 16.79 0 30.4-13.61 30.4-30.4s-13.62-30.4-30.4-30.4z" fill="#fff"/></g></g></svg>