<svg xmlns="http://www.w3.org/2000/svg" viewBox="0 0 129 129" width="46" height="46"><style/><g id="Слой 1"><path id="&lt;Path&gt;" d="M64.22.64c35.27 0 63.86 28.59 63.86 63.86 0 35.27-28.59 63.86-63.86 63.86C28.95 128.36.36 99.77.36 64.5.36 29.23 28.95.64 64.22.64z" fill="#ff2f17"/><path id="&lt;Compound Path&gt;" fill-rule="evenodd" d="M94.36 52.41v24.17c0 4.98-4.03 9.02-9.01 9.02H43.09c-4.98 0-9.01-4.04-9.01-9.02V52.41c0-4.97 4.03-9.01 9.01-9.01h42.26c4.98 0 9.01 4.04 9.01 9.01zM75.4 63.34L58.19 51.99v22.7L75.4 63.34z" fill="#fff"/></g></svg>