<svg xmlns="http://www.w3.org/2000/svg" viewBox="0 0 129 129" width="64" height="64">
	<style>
		tspan { white-space:pre }
		.shp0 { fill: #27559f } 
		.shp1 { fill: #ffffff } 
	</style>
	<g id="Слой 1">
		<g id="&lt;Group&gt;">
			<path id="&lt;Path&gt;" class="shp0" d="M64.22 0.47C99.49 0.47 128.08 29.07 128.08 64.33C128.08 99.61 99.49 128.2 64.22 128.2C28.95 128.2 0.36 99.61 0.36 64.33C0.36 29.07 28.95 0.47 64.22 0.47Z" />
			<path id="&lt;Path&gt;" class="shp1" d="M70.64 48.02L77.42 48.02L77.42 38L69.44 38L69.44 38.03C59.77 38.38 57.79 43.81 57.62 49.52L57.6 49.52L57.6 54.53L51.01 54.53L51.01 64.35L57.6 64.35L57.6 90.67L67.52 90.67L67.52 64.35L75.65 64.35L77.22 54.53L67.52 54.53L67.52 51.5C67.52 49.57 68.81 48.02 70.64 48.02Z" />
		</g>
	</g>
</svg>