<svg xmlns="http://www.w3.org/2000/svg" viewBox="0 0 129 129" width="64" height="64">
	<defs>
		<linearGradient id="grd1" gradientUnits="userSpaceOnUse"  x1="-32.705" y1="57.097" x2="57.61" y2="-33.218">
			<stop offset="0" stop-color="#ed9b40"  />
			<stop offset="0.3" stop-color="#d74948"  />
			<stop offset="0.6" stop-color="#ca2c7c"  />
			<stop offset="1" stop-color="#5241a2"  />
		</linearGradient>
	</defs>
	<style>
		tspan { white-space:pre }
		.shp0 { fill: url(#grd1) } 
		.shp1 { fill: #ffffff } 
	</style>
	<g id="Слой 1">
		<g id="&lt;Group&gt;">
			<path id="&lt;Path&gt;" class="shp0" d="M128.71 64.33C128.71 99.6 100.12 128.2 64.85 128.2C29.58 128.2 0.98 99.6 0.98 64.33C0.98 29.06 29.58 0.47 64.85 0.47C100.12 0.47 128.71 29.06 128.71 64.33Z" />
			<g id="&lt;Group&gt;">
				<path id="&lt;Compound Path&gt;" fill-rule="evenodd" class="shp1" d="M91.18 52.26L91.18 76.41C91.18 84.28 84.79 90.67 76.93 90.67L52.77 90.67C44.91 90.67 38.51 84.28 38.51 76.41L38.51 52.26C38.51 44.39 44.91 38 52.77 38L76.93 38C84.79 38 91.18 44.39 91.18 52.26ZM79.25 64.33C79.25 56.39 72.79 49.93 64.85 49.93C56.9 49.93 50.44 56.39 50.44 64.33C50.44 72.28 56.9 78.74 64.85 78.74C72.79 78.74 79.25 72.28 79.25 64.33ZM83.85 49.07C83.85 46.72 81.94 44.82 79.59 44.82C77.25 44.82 75.34 46.72 75.34 49.07C75.34 51.42 77.25 53.33 79.59 53.33C81.94 53.33 83.85 51.42 83.85 49.07Z" />
				<path id="&lt;Path&gt;" class="shp1" d="M64.85 53.94C59.12 53.94 54.45 58.6 54.45 64.33C54.45 70.07 59.12 74.73 64.85 74.73C70.58 74.73 75.24 70.07 75.24 64.33C75.24 58.6 70.58 53.94 64.85 53.94Z" />
				<path id="&lt;Path&gt;" class="shp1" d="M79.59 47.9C78.95 47.9 78.43 48.43 78.43 49.07C78.43 49.72 78.95 50.24 79.59 50.24C80.24 50.24 80.76 49.72 80.76 49.07C80.76 48.43 80.24 47.9 79.59 47.9Z" />
			</g>
		</g>
	</g>
</svg>