<svg xmlns="http://www.w3.org/2000/svg" viewBox="0 0 854 854" width="60" height="60">
	<style>
		tspan { white-space:pre }
		.shp0 { fill: #62cc82 } 
	</style>
	<g id="Page 1">
		<path id="Path 1" fill-rule="evenodd" class="shp0" d="M853.34 427.34C853.34 662.95 662.29 854 426.67 854C191.04 854 0 662.95 0 427.34C0 191.71 191.04 0.67 426.67 0.67C662.29 0.67 853.34 191.71 853.34 427.34ZM53.34 427.34C53.34 633.17 220.83 800.67 426.67 800.67C632.5 800.67 800 633.17 800 427.34C800 221.5 632.5 54 426.67 54C220.83 54 53.34 221.5 53.34 427.34ZM651.98 623.22L617.81 657.39C611.72 663.48 593.86 667.29 593.28 667.29C485.21 668.22 381.14 625.77 304.69 549.32C228.02 472.6 185.52 368.17 186.67 259.73C186.67 259.67 190.58 242.33 196.66 236.3L230.84 202.12C243.34 189.57 267.34 183.89 284.16 189.52L291.36 191.92C308.12 197.54 325.73 216.08 330.36 233.17L347.55 296.24C352.19 313.38 345.94 337.75 333.44 350.25L310.63 373.06C333.02 455.98 398.07 521.03 480.99 543.48L503.8 520.67C516.36 508.11 540.73 501.86 557.81 506.5L620.88 523.74C637.97 528.42 656.51 545.93 662.13 562.69L664.54 569.99C670.11 586.76 664.48 610.77 651.98 623.22Z" />
	</g>
</svg>