<svg xmlns="http://www.w3.org/2000/svg" viewBox="0 0 129 129" width="64" height="64">
	<style>
		tspan { white-space:pre }
		.shp0 { fill: #ff2e17 } 
		.shp1 { fill: #ffffff } 
	</style>
	<g id="Слой 1">
		<g id="&lt;Group&gt;">
			<path id="&lt;Path&gt;" class="shp0" d="M64.85 0.64C100.12 0.64 128.71 29.23 128.71 64.5C128.71 99.77 100.12 128.36 64.85 128.36C29.58 128.36 0.98 99.77 0.98 64.5C0.98 29.23 29.58 0.64 64.85 0.64Z" />
			<path id="&lt;Path&gt;" class="shp1" d="M64.75 34.56C47.96 34.56 34.34 48.17 34.34 64.96C34.34 77.41 41.83 88.11 52.54 92.81C52.46 90.68 52.53 88.13 53.07 85.83C53.46 84.18 54.77 78.66 56.98 69.26C56.33 67.96 56.01 66.36 56.01 64.45C56.01 59.95 58.62 56.58 61.88 56.58C64.64 56.58 65.98 58.66 65.98 61.14C65.98 63.92 64.2 68.08 63.29 71.93C62.53 75.16 64.91 77.79 68.09 77.79C73.85 77.79 77.73 70.39 77.73 61.62C77.73 54.96 73.24 49.98 65.08 49.98C55.86 49.98 50.11 56.85 50.11 64.53C50.11 67.18 50.89 69.05 52.12 70.5C52.68 71.16 52.76 71.43 52.55 72.19C52.41 72.75 52.08 74.1 51.94 74.63C51.73 75.4 51.11 75.67 50.41 75.39C46.16 73.66 44.19 69.01 44.19 63.78C44.19 55.14 51.47 44.78 65.92 44.78C77.52 44.78 85.17 53.18 85.17 62.2C85.17 74.13 78.53 83.03 68.76 83.03C65.47 83.03 62.39 81.26 61.33 79.25C60.15 83.92 59.44 86.7 59.19 87.61C58.55 89.94 57.28 92.29 56.13 94.12C58.86 94.92 61.75 95.36 64.75 95.36C81.54 95.36 95.15 81.75 95.15 64.96C95.15 48.17 81.53 34.56 64.75 34.56Z" />
		</g>
	</g>
</svg>