<svg xmlns="http://www.w3.org/2000/svg" viewBox="0 0 129 129" width="46" height="46">
	<style>
		tspan { white-space:pre }
		.shp0 { fill: #ff2f17 } 
		.shp1 { fill: #ffffff } 
	</style>
	<g id="Слой 1">
		<path id="&lt;Path&gt;" class="shp0" d="M64.22 0.64C99.49 0.64 128.08 29.23 128.08 64.5C128.08 99.77 99.49 128.36 64.22 128.36C28.95 128.36 0.36 99.77 0.36 64.5C0.36 29.23 28.95 0.64 64.22 0.64Z" />
		<path id="&lt;Compound Path&gt;" fill-rule="evenodd" class="shp1" d="M94.36 52.41L94.36 76.58C94.36 81.56 90.33 85.6 85.35 85.6L43.09 85.6C38.11 85.6 34.08 81.56 34.08 76.58L34.08 52.41C34.08 47.44 38.11 43.4 43.09 43.4L85.35 43.4C90.33 43.4 94.36 47.44 94.36 52.41L94.36 52.41ZM75.4 63.34L58.19 51.99L58.19 74.69L75.4 63.34Z" />
	</g>
</svg>